<?xml version="1.0" standalone="no"?>
<!DOCTYPE svg PUBLIC "-//W3C//DTD SVG 20010904//EN"
 "http://www.w3.org/TR/2001/REC-SVG-20010904/DTD/svg10.dtd">
<svg version="1.0" xmlns="http://www.w3.org/2000/svg"
 width="150.000000pt" height="38.000000pt" viewBox="0 0 150.000000 38.000000"
 preserveAspectRatio="xMidYMid meet">

<g transform="translate(0.000000,38.000000) scale(0.100000,-0.100000)"
fill="#000000" stroke="none">
<path d="M635 293 c-4 -12 1 -23 13 -33 10 -9 25 -27 32 -40 12 -23 13 -23 31
26 11 27 19 52 19 57 0 4 -20 7 -44 7 -32 0 -46 -5 -51 -17z"/>
<path d="M862 301 c-8 -5 -56 -62 -106 -127 l-93 -119 101 -3 c97 -3 102 -2
123 23 28 31 33 31 33 0 0 -23 4 -25 46 -25 38 0 45 3 40 18 -2 9 -10 57 -17
107 -17 129 -20 135 -71 135 -24 0 -49 -4 -56 -9z m38 -100 c0 -10 3 -32 6
-49 6 -29 5 -30 -40 -33 -25 -2 -46 -2 -46 0 0 10 65 101 73 101 4 0 7 -8 7
-19z"/>
<path d="M1113 278 c-6 -18 -27 -77 -46 -130 l-36 -98 48 0 48 0 18 60 c10 34
22 63 26 65 4 3 12 -24 19 -60 16 -84 31 -84 105 0 32 36 59 64 61 62 2 -2 -5
-27 -16 -55 -11 -29 -20 -57 -20 -62 0 -6 20 -10 44 -10 l43 0 41 113 c22 61
43 120 47 130 6 15 0 17 -53 17 l-60 0 -58 -66 c-32 -37 -59 -63 -60 -58 -2 5
-8 35 -14 67 l-11 57 -58 0 c-56 0 -58 -1 -68 -32z"/>
<path d="M590 177 l-25 -52 -69 -5 c-66 -5 -71 -7 -89 -37 l-19 -33 52 0 c47
0 57 5 131 60 43 34 79 67 79 74 0 7 -8 20 -18 29 -16 15 -19 12 -42 -36z"/>
<path d="M613 88 c-24 -17 -41 -33 -39 -35 8 -8 66 28 76 47 14 25 13 25 -37
-12z"/>
</g>
</svg>
